<?xml version="1.0" encoding="UTF-8" standalone="no"?>
<!-- Created with Inkscape (http://www.inkscape.org/) -->

<svg
   xmlns:dc="http://purl.org/dc/elements/1.1/"
   xmlns:cc="http://creativecommons.org/ns#"
   xmlns:rdf="http://www.w3.org/1999/02/22-rdf-syntax-ns#"
   xmlns:svg="http://www.w3.org/2000/svg"
   xmlns="http://www.w3.org/2000/svg"
   xmlns:sodipodi="http://sodipodi.sourceforge.net/DTD/sodipodi-0.dtd"
   xmlns:inkscape="http://www.inkscape.org/namespaces/inkscape"
   width="283.46457"
   height="70.866142"
   id="svg2"
   version="1.1"
   inkscape:version="0.48.5 r10040"
   sodipodi:docname="seedstack-lid-text.dxf">
  <sodipodi:namedview
     id="base"
     pagecolor="#ffffff"
     bordercolor="#666666"
     borderopacity="1.0"
     inkscape:pageopacity="0.0"
     inkscape:pageshadow="2"
     inkscape:zoom="6.2759166"
     inkscape:cx="163.24093"
     inkscape:cy="35.433071"
     inkscape:document-units="px"
     inkscape:current-layer="layer1"
     showgrid="false"
     units="mm"
     inkscape:window-width="1920"
     inkscape:window-height="1109"
     inkscape:window-x="1600"
     inkscape:window-y="30"
     inkscape:window-maximized="1" />
  <defs
     id="defs4" />
  <metadata
     id="metadata7">
    <rdf:RDF>
      <cc:Work
         rdf:about="">
        <dc:format>image/svg+xml</dc:format>
        <dc:type
           rdf:resource="http://purl.org/dc/dcmitype/StillImage" />
        <dc:title></dc:title>
      </cc:Work>
    </rdf:RDF>
  </metadata>
  <g
     transform="translate(0,-981.49605)"
     id="layer1"
     inkscape:groupmode="layer"
     inkscape:label="Layer 1">
    <g
       id="g3008">
      <g
         style="font-size:40px;font-style:normal;font-weight:normal;line-height:125%;letter-spacing:0px;word-spacing:0px;fill:#000000;fill-opacity:1;stroke:none;font-family:Sans"
         id="text2985">
        <path
           d="M29.783784 1027.9456L43.839784 1027.9456L45.1662727031 1027.7986L46.177768625 1027.3576L46.8742722344 1026.6226L47.255784 1025.5936L47.759784 1022.6816L47.759784 1022.1776L47.66176775 1021.6596375L47.367784 1021.2256L46.877768125 1020.87565L46.191784 1020.7216L45.239784 1020.7216L38.967784 1020.7216L37.5187780938 1020.6061L36.1957765 1020.2596L34.9987786562 1019.6821L33.927784 1018.8736L33.0947803437 1017.85511875L32.49977925 1016.703625L32.1427805312 1015.41911875L32.023784 1014.0016L32.135784 1012.7696L33.479784 1004.2576L33.955777875 1002.255625L34.823784 1000.3936L36.12577625 998.7556375L37.791784 997.42561L38.8312762187 996.9111325L40.04577325 996.54364L41.4352756562 996.3231325L42.999784 996.24961L60.583784 996.24961L59.183784 1004.9856L45.183784 1004.9856L43.81177425 1005.10810937L42.77577125 1005.475625L42.075774625 1006.08812812L41.711784 1006.9456L41.263784 1009.6896L41.263784 1010.1936L41.4037725 1010.991625L41.823784 1011.5936L42.6497715 1011.887625L43.783784 1011.9856L49.999784 1011.9856L51.6272745938 1012.08972773L53.0377676875 1012.40210938L54.231263375 1012.92274258L55.20776175 1013.651625L55.9672629062 1014.5887543L56.5097669375 1015.73412812L56.8352739375 1017.08774414L56.943784 1018.6496L56.831784 1019.9936L55.543784 1028.1136L55.1027676406 1029.97208125L54.395762375 1031.627575L53.4227679219 1033.08008125L52.183784 1034.3296L50.7592706875 1035.33411406L49.1737665 1036.0516125L47.4272710625 1036.48210469L45.519784 1036.6256L28.383784 1036.6256L29.783784 1027.9456"
           style="font-size:56px;font-variant:normal;font-weight:bold;font-stretch:normal;letter-spacing:-1.03999996px;font-family:Digital-BoldIta;-inkscape-font-specification:Digital-BoldIta Bold"
           id="path2990" />
        <path
           d="M67.608658 1036.6256L65.6267809219 1036.52410137L63.909154625 1036.21960469L62.4557790156 1035.71210879L61.266654 1035.0016125L60.3417794844 1034.08811465L59.681155375 1032.97161406L59.2847815781 1031.65210957L59.152658 1030.1296L59.320658 1028.2256L63.016658 1005.0416L63.422653125 1003.06060484L64.08065125 1001.31761375L64.99065275 999.812618281L66.152658 998.54561L67.5316506875 997.541131094L69.09264775 996.82363875L70.8356499375 996.393132031L72.760658 996.24961L90.736658 996.24961L89.392658 1004.9856L75.224658 1004.9856L73.712658 1004.9856L73.23664425 1005.0836125L72.704658 1005.3776L71.752658 1006.2736L71.248658 1007.5616L70.576658 1011.9856L88.272658 1011.9856L86.872658 1020.7216L69.232658 1020.7216L68.504658 1025.2016L68.448658 1025.9856L68.5641505469 1026.84311406L68.910647875 1027.4556125L69.4881502656 1027.82310469L70.296658 1027.9456L71.584658 1027.9456L85.752658 1027.9456L84.352658 1036.6256L67.608658 1036.6256"
           style="font-size:56px;font-variant:normal;font-weight:bold;font-stretch:normal;letter-spacing:-1.03999996px;font-family:Digital-BoldIta;-inkscape-font-specification:Digital-BoldIta Bold"
           id="path2992" />
        <path
           d="M97.740532 1036.6256L95.7586549219 1036.52410137L94.041028625 1036.21960469L92.5876530156 1035.71210879L91.398528 1035.0016125L90.4736534844 1034.08811465L89.813029375 1032.97161406L89.4166555781 1031.65210957L89.284532 1030.1296L89.452532 1028.2256L93.148532 1005.0416L93.5545272656 1003.06060484L94.212525625 1001.31761375L95.1225271719 999.812618281L96.284532 998.54561L97.6635250781 997.541131094L99.224522625 996.82363875L100.967524359 996.393132031L102.89253 996.24961L120.86853 996.24961L119.52453 1004.9856L105.35653 1004.9856L103.84453 1004.9856L103.36852 1005.0836125L102.83653 1005.3776L101.88453 1006.2736L101.38053 1007.5616L100.70853 1011.9856L118.40453 1011.9856L117.00453 1020.7216L99.364532 1020.7216L98.636532 1025.2016L98.580532 1025.9856L98.6960245156 1026.84311406L99.042521625 1027.4556125L99.6200234219 1027.82310469L100.42853 1027.9456L101.71653 1027.9456L115.88453 1027.9456L114.48453 1036.6256L97.740532 1036.6256"
           style="font-size:56px;font-variant:normal;font-weight:bold;font-stretch:normal;letter-spacing:-1.03999996px;font-family:Digital-BoldIta;-inkscape-font-specification:Digital-BoldIta Bold"
           id="path2994" />
        <path
           d="M124.62441 996.24961L145.28841 996.24961L147.047147832 996.346748105L148.571388906 996.638132344L149.86113334 997.123762598L150.91638125 997.80363875L151.737132754 998.677760684L152.323387969 999.746128281L152.675147012 1001.00874143L152.79241 1002.4656L152.73641 1003.7536L152.51241 1005.2096L148.98441 1027.7216L148.501397285 1029.808475L147.808388906 1031.6171L146.905384512 1033.147475L145.79238375 1034.3996L144.46938627 1035.373475L142.936391719 1036.0691L141.193399746 1036.486475L139.24041 1036.6256L118.29641 1036.6256L124.62441 996.24961M137.22441 1027.9456L138.7783875 1027.7776L139.74441 1027.2736L140.34638875 1026.2376125L140.80841 1024.4736L143.38441 1008.0096L143.49641 1006.8896L143.331893594 1006.05661406L142.83838875 1005.4616125L142.015894531 1005.10460469L140.86441 1004.9856L131.96041 1004.9856L128.32041 1027.9456L137.22441 1027.9456"
           style="font-size:56px;font-variant:normal;font-weight:bold;font-stretch:normal;letter-spacing:-1.03999996px;font-family:Digital-BoldIta;-inkscape-font-specification:Digital-BoldIta Bold"
           id="path2996" />
        <path
           d="M152.82691 1027.9456L166.88291 1027.9456L168.209395469 1027.7986L169.22089125 1027.3576L169.917396406 1026.6226L170.29891 1025.5936L170.80291 1022.6816L170.80291 1022.1776L170.70489 1021.6596375L170.41091 1021.2256L169.92089 1020.87565L169.23491 1020.7216L168.28291 1020.7216L162.01091 1020.7216L160.561900156 1020.6061L159.23889875 1020.2596L158.041902969 1019.6821L156.97091 1018.8736L156.137905781 1017.85511875L155.54290375 1016.703625L155.185904844 1015.41911875L155.06691 1014.0016L155.17891 1012.7696L156.52291 1004.2576L156.9988975 1002.255625L157.86691 1000.3936L159.16889625 998.7556375L160.83491 997.42561L161.874401094 996.9111325L163.08889625 996.54364L164.478398281 996.3231325L166.04291 996.24961L183.62691 996.24961L182.22691 1004.9856L168.22691 1004.9856L166.854895469 1005.10810937L165.81889125 1005.475625L165.118896406 1006.08812812L164.75491 1006.9456L164.30691 1009.6896L164.30691 1010.1936L164.44689625 1010.991625L164.86691 1011.5936L165.69289375 1011.887625L166.82691 1011.9856L173.04291 1011.9856L174.670398789 1012.08972773L176.080890313 1012.40210938L177.274384805 1012.92274258L178.2508825 1013.651625L179.010383633 1014.5887543L179.552888438 1015.73412812L179.878397148 1017.08774414L179.98691 1018.6496L179.87491 1019.9936L178.58691 1028.1136L178.14589125 1029.97208125L177.438885 1031.627575L176.46589125 1033.08008125L175.22691 1034.3296L173.802393594 1035.33411406L172.21688875 1036.0516125L170.470394531 1036.48210469L168.56291 1036.6256L151.42691 1036.6256L152.82691 1027.9456"
           style="font-size:56px;font-variant:normal;font-weight:bold;font-stretch:normal;letter-spacing:-1.03999996px;font-family:Digital-BoldIta;-inkscape-font-specification:Digital-BoldIta Bold"
           id="path2998" />
        <path
           d="M187.62779 995.01761L195.29979 995.01761L193.50779 1006.3296L198.65979 1006.3296L197.48379 1014.0576L192.33179 1014.0576L188.74779 1036.6256L181.07579 1036.6256L187.62779 995.01761"
           style="font-size:56px;font-variant:normal;font-weight:bold;font-stretch:normal;letter-spacing:-1.03999996px;font-family:Digital-BoldIta;-inkscape-font-specification:Digital-BoldIta Bold"
           id="path3000" />
        <path
           d="M217.25347 1006.3296L218.828459746 1006.421475L220.193451719 1006.6971L221.34844627 1007.156475L222.29344375 1007.7996L223.028444512 1008.626475L223.553448906 1009.6371L223.868457285 1010.831475L223.97347 1012.2096L223.86147 1013.4976L221.34147 1029.5696L220.998451719 1031.04308594L220.41744625 1032.3835875L219.598452656 1033.59109531L218.54147 1034.6656L217.326953594 1035.52311406L216.03544875 1036.1356125L214.666954531 1036.50310469L213.22147 1036.6256L202.74947 1036.6256L201.148215762 1036.53547363L199.760462969 1036.26509531L198.586211504 1035.81446621L197.62546125 1035.1835875L196.87821209 1034.37246035L196.344463906 1033.38108594L196.024216582 1032.20946543L195.91747 1030.8576L196.02947 1029.7936L196.98147 1023.6336L197.341964844 1022.02012344L197.91946375 1020.5956375L198.713965781 1019.36013281L199.72547 1018.3136L200.929462031 1017.48061406L202.30145875 1016.8856125L203.841461094 1016.52860469L205.54947 1016.4096L215.74147 1016.4096L215.90947 1015.6816L215.96547 1014.8976L215.853453594 1014.33412813L215.51744875 1013.931625L214.957454531 1013.69010938L214.17347 1013.6096L198.71747 1013.6096L199.83747 1006.3296L217.25347 1006.3296M205.77347 1029.1776L211.70947 1029.1776L212.587954531 1029.06910937L213.26344875 1028.743625L213.735953594 1028.20112812L214.00547 1027.4416L214.39747 1025.3136L214.45347 1024.6416L214.31345 1024.2636125L213.89347 1023.9136L213.3054475 1023.6196125L212.54947 1023.5216L206.61347 1023.5216L205.6334575 1023.6196125L205.04547 1023.9136L204.709455 1024.487625L204.37347 1025.5376L204.09347 1027.4416L204.03747 1027.6096L204.1494575 1028.26765L204.48547 1028.7856L205.03145625 1029.0516125L205.77347 1029.1776"
           style="font-size:56px;font-variant:normal;font-weight:bold;font-stretch:normal;letter-spacing:-1.03999996px;font-family:Digital-BoldIta;-inkscape-font-specification:Digital-BoldIta Bold"
           id="path3002" />
        <path
           d="M247.97029 1014.0576L237.61029 1014.0576L236.43427625 1014.113725L235.70629 1014.2816L235.286275 1014.6176L235.03429 1015.2896L234.92229 1016.2416L233.24229 1026.8256L233.24229 1027.1056L233.354279688 1027.9141L233.6902775 1028.4916L234.250281563 1028.8381L235.03429 1028.9536L245.56229 1028.9536L244.38629 1036.6256L232.06629 1036.6256L230.425660762 1036.53722637L229.003782969 1036.27210469L227.800656504 1035.83023379L226.81628125 1035.2116125L226.05065709 1034.41623965L225.503783906 1033.44411406L225.175661582 1032.29523457L225.06629 1030.9696L225.23429 1028.8416L227.64229 1013.4976L227.988784375 1011.9331375L228.5242825 1010.54365L229.248784375 1009.3291375L230.16229 1008.2896L231.229779688 1007.43212813L232.4162775 1006.819625L233.721781563 1006.45210938L235.14629 1006.3296L249.14629 1006.3296L247.97029 1014.0576"
           style="font-size:56px;font-variant:normal;font-weight:bold;font-stretch:normal;letter-spacing:-1.03999996px;font-family:Digital-BoldIta;-inkscape-font-specification:Digital-BoldIta Bold"
           id="path3004" />
        <path
           d="M254.3984 995.01761L262.0704 995.01761L255.5184 1036.6256L247.8464 1036.6256L254.3984 995.01761M258.4304 1023.2416L258.0944 1021.7856L258.174893906 1020.98761875L258.41639125 1020.161625L259.3824 1018.4256L268.3984 1006.3296L277.3584 1006.3296L266.3824 1021.0016L273.3824 1036.6256L264.3664 1036.6256L258.4304 1023.2416"
           style="font-size:56px;font-variant:normal;font-weight:bold;font-stretch:normal;letter-spacing:-1.03999996px;font-family:Digital-BoldIta;-inkscape-font-specification:Digital-BoldIta Bold"
           id="path3006" />
      </g>
    </g>
  </g>
</svg>
