  0
SECTION
  2
HEADER
  9
$ACADVER
  1
AC1014
  9
$HANDSEED
  5
FFFF
  9
$MEASUREMENT
 70
     1
  0
ENDSEC
  0
SECTION
  2
TABLES
  0
TABLE
  2
VPORT
  5
8
330
0
100
AcDbSymbolTable
 70
     4
  0
VPORT
  5
2E
330
8
100
AcDbSymbolTableRecord
100
AcDbViewportTableRecord
  2
*ACTIVE
 70
     0
 10
0.0
 20
0.0
 11
1.0
 21
1.0
 12
210.0
 22
148.5
 13
0.0
 23
0.0
 14
10.0
 24
10.0
 15
10.0
 25
10.0
 16
0.0
 26
0.0
 36
1.0
 17
0.0
 27
0.0
 37
0.0
 40
341.0
 41
1.24
 42
50.0
 43
0.0
 44
0.0
 50
0.0
 51
0.0
 71
     0
 72
   100
 73
     1
 74
     3
 75
     0
 76
     0
 77
     0
 78
     0
  0
ENDTAB
  0
TABLE
  2
LTYPE
  5
5
330
0
100
AcDbSymbolTable
 70
     1
  0
LTYPE
  5
14
330
5
100
AcDbSymbolTableRecord
100
AcDbLinetypeTableRecord
  2
BYBLOCK
 70
     0
  3

 72
    65
 73
     0
 40
0.0
  0
LTYPE
  5
15
330
5
100
AcDbSymbolTableRecord
100
AcDbLinetypeTableRecord
  2
BYLAYER
 70
     0
  3

 72
    65
 73
     0
 40
0.0
  0
LTYPE
  5
16
330
5
100
AcDbSymbolTableRecord
100
AcDbLinetypeTableRecord
  2
CONTINUOUS
 70
     0
  3
Solid line
 72
    65
 73
     0
 40
0.0
  0
ENDTAB
  0
TABLE
  2
LAYER
  5
2
100
AcDbSymbolTable
 70
2
  0
LAYER
  5
50
100
AcDbSymbolTableRecord
100
AcDbLayerTableRecord
  2
0
 70
0
  6
CONTINUOUS
  0
LAYER
  5
51
100
AcDbSymbolTableRecord
100
AcDbLayerTableRecord
  2
Layer_1
 70
0
  6
CONTINUOUS
  0
ENDTAB
  0
TABLE
  2
STYLE
  5
3
330
0
100
AcDbSymbolTable
 70
     1
  0
STYLE
  5
11
330
3
100
AcDbSymbolTableRecord
100
AcDbTextStyleTableRecord
  2
STANDARD
 70
     0
 40
0.0
 41
1.0
 50
0.0
 71
     0
 42
2.5
  3
txt
  4

  0
ENDTAB
  0
TABLE
  2
VIEW
  5
6
330
0
100
AcDbSymbolTable
 70
     0
  0
ENDTAB
  0
TABLE
  2
UCS
  5
7
330
0
100
AcDbSymbolTable
 70
     0
  0
ENDTAB
  0
TABLE
  2
APPID
  5
9
330
0
100
AcDbSymbolTable
 70
     2
  0
APPID
  5
12
330
9
100
AcDbSymbolTableRecord
100
AcDbRegAppTableRecord
  2
ACAD
 70
     0
  0
ENDTAB
  0
TABLE
  2
DIMSTYLE
  5
A
330
0
100
AcDbSymbolTable
 70
     1
  0
DIMSTYLE
105
27
330
A
100
AcDbSymbolTableRecord
100
AcDbDimStyleTableRecord
  2
ISO-25
 70
     0
  3

  4

  5

  6

  7

 40
1.0
 41
2.5
 42
0.625
 43
3.75
 44
1.25
 45
0.0
 46
0.0
 47
0.0
 48
0.0
140
2.5
141
2.5
142
0.0
143
0.03937007874016
144
1.0
145
0.0
146
1.0
147
0.625
 71
     0
 72
     0
 73
     0
 74
     0
 75
     0
 76
     0
 77
     1
 78
     8
170
     0
171
     3
172
     1
173
     0
174
     0
175
     0
176
     0
177
     0
178
     0
270
     2
271
     2
272
     2
273
     2
274
     3
340
11
275
     0
280
     0
281
     0
282
     0
283
     0
284
     8
285
     0
286
     0
287
     3
288
     0
  0
ENDTAB
  0
TABLE
  2
BLOCK_RECORD
  5
1
330
0
100
AcDbSymbolTable
 70
     1
  0
BLOCK_RECORD
  5
1F
330
1
100
AcDbSymbolTableRecord
100
AcDbBlockTableRecord
  2
*MODEL_SPACE
  0
BLOCK_RECORD
  5
1B
330
1
100
AcDbSymbolTableRecord
100
AcDbBlockTableRecord
  2
*PAPER_SPACE
  0
ENDTAB
  0
ENDSEC
  0
SECTION
  2
BLOCKS
  0
BLOCK
  5
20
330
1F
100
AcDbEntity
  8
0
100
AcDbBlockBegin
  2
*MODEL_SPACE
 70
     0
 10
0.0
 20
0.0
 30
0.0
  3
*MODEL_SPACE
  1

  0
ENDBLK
  5
21
330
1F
100
AcDbEntity
  8
0
100
AcDbBlockEnd
  0
BLOCK
  5
1C
330
1B
100
AcDbEntity
 67
     1
  8
0
100
AcDbBlockBegin
  2
*PAPER_SPACE
  1

  0
ENDBLK
  5
1D
330
1B
100
AcDbEntity
 67
     1
  8
0
100
AcDbBlockEnd
  0
ENDSEC
  0
SECTION
  2
ENTITIES
  0
LWPOLYLINE
  5
100
100
AcDbEntity
  8
Layer_1
 62
7
100
AcDbPolyline
 90
58
 70
0
 10
28.971728
 20
38.325932
 30
0.0
 10
28.936086
 20
42.969497
 30
0.0
 10
28.810441
 20
46.295890
 30
0.0
 10
28.626029
 20
49.096457
 30
0.0
 10
28.440774
 20
51.015562
 30
0.0
 10
28.208119
 20
52.721170
 30
0.0
 10
26.853420
 20
56.171359
 30
0.0
 10
23.964168
 20
62.077336
 30
0.0
 10
21.394726
 20
61.703078
 30
0.0
 10
18.869803
 20
61.791809
 30
0.0
 10
16.757505
 20
62.248278
 30
0.0
 10
15.022538
 20
63.034893
 30
0.0
 10
13.629604
 20
64.114015
 30
0.0
 10
12.543409
 20
65.448068
 30
0.0
 10
11.728658
 20
66.999419
 30
0.0
 10
11.150054
 20
68.730474
 30
0.0
 10
10.772301
 20
70.603608
 30
0.0
 10
10.560103
 20
72.581221
 30
0.0
 10
10.491195
 20
76.699453
 30
0.0
 10
10.787036
 20
84.534831
 30
0.0
 10
13.937946
 20
81.887770
 30
0.0
 10
17.075059
 20
79.494350
 30
0.0
 10
20.023725
 20
77.224440
 30
0.0
 10
22.609296
 20
74.947906
 30
0.0
 10
24.657126
 20
72.534612
 30
0.0
 10
25.424807
 20
71.236014
 30
0.0
 10
25.992562
 20
69.854427
 30
0.0
 10
26.338552
 20
68.373576
 30
0.0
 10
26.440956
 20
66.777211
 30
0.0
 10
26.277934
 20
65.049054
 30
0.0
 10
25.827659
 20
63.172832
 30
0.0
 10
29.653687
 20
55.384498
 30
0.0
 10
31.902471
 20
59.428477
 30
0.0
 10
31.579831
 20
63.734099
 30
0.0
 10
31.834523
 20
65.443979
 30
0.0
 10
32.245244
 20
66.861101
 30
0.0
 10
32.804255
 20
68.015122
 30
0.0
 10
33.503833
 20
68.935680
 30
0.0
 10
34.336239
 20
69.652437
 30
0.0
 10
35.293746
 20
70.195041
 30
0.0
 10
37.553121
 20
70.876362
 30
0.0
 10
40.220098
 20
71.216854
 30
0.0
 10
46.529439
 20
71.824115
 30
0.0
 10
44.337038
 20
65.484320
 30
0.0
 10
43.379909
 20
63.088702
 30
0.0
 10
42.285790
 20
61.196317
 30
0.0
 10
40.882406
 20
59.797435
 30
0.0
 10
38.997481
 20
58.882341
 30
0.0
 10
36.458731
 20
58.441318
 30
0.0
 10
33.439664
 20
58.061249
 30
0.0
 10
32.297723
 20
55.960641
 30
0.0
 10
31.022600
 20
53.297496
 30
0.0
 10
31.069492
 20
51.257199
 30
0.0
 10
31.183953
 20
47.416411
 30
0.0
 10
31.275319
 20
43.556218
 30
0.0
 10
31.300917
 20
39.839199
 30
0.0
 10
31.302892
 20
38.394670
 30
0.0
 10
28.763392
 20
38.388461
 30
0.0
  0
LWPOLYLINE
  5
101
100
AcDbEntity
  8
Layer_1
 62
7
100
AcDbPolyline
 90
110
 70
0
 10
0.447005
 20
25.746741
 30
0.0
 10
7.804285
 20
24.378576
 30
0.0
 10
8.239752
 20
24.003979
 30
0.0
 10
10.494957
 20
18.742575
 30
0.0
 10
10.459154
 20
18.173740
 30
0.0
 10
6.172517
 20
11.925935
 30
0.0
 10
6.109076
 20
11.663838
 30
0.0
 10
6.219509
 20
11.417520
 30
0.0
 10
11.573554
 20
6.063474
 30
0.0
 10
11.819651
 20
5.952704
 30
0.0
 10
12.081524
 20
6.016484
 30
0.0
 10
18.438977
 20
10.379202
 30
0.0
 10
19.010498
 20
10.420378
 30
0.0
 10
24.110783
 20
8.332555
 30
0.0
 10
24.486725
 20
7.902011
 30
0.0
 10
25.903222
 20
0.292312
 30
0.0
 10
26.043416
 20
0.061877
 30
0.0
 10
26.295724
 20
-0.033951
 30
0.0
 10
33.868275
 20
-0.033951
 30
0.0
 10
34.120190
 20
0.061877
 30
0.0
 10
34.260333
 20
0.292312
 30
0.0
 10
35.676377
 20
7.902011
 30
0.0
 10
36.052320
 20
8.332555
 30
0.0
 10
41.153057
 20
10.420378
 30
0.0
 10
41.724580
 20
10.379202
 30
0.0
 10
48.081585
 20
6.016484
 30
0.0
 10
48.344018
 20
5.952704
 30
0.0
 10
48.590002
 20
6.063474
 30
0.0
 10
53.944492
 20
11.417520
 30
0.0
 10
54.055095
 20
11.663838
 30
0.0
 10
53.991485
 20
11.925935
 30
0.0
 10
49.704402
 20
18.173740
 30
0.0
 10
49.669048
 20
18.742575
 30
0.0
 10
51.924695
 20
24.003979
 30
0.0
 10
52.360164
 20
24.378576
 30
0.0
 10
59.716995
 20
25.746741
 30
0.0
 10
59.947596
 20
25.887494
 30
0.0
 10
60.043260
 20
26.139688
 30
0.0
 10
60.042978
 20
33.711794
 30
0.0
 10
59.947147
 20
33.964491
 30
0.0
 10
59.716715
 20
34.104741
 30
0.0
 10
52.540247
 20
35.440233
 30
0.0
 10
52.114179
 20
35.817519
 30
0.0
 10
49.873744
 20
41.414136
 30
0.0
 10
49.916261
 20
41.985658
 30
0.0
 10
53.992546
 20
47.925996
 30
0.0
 10
54.055986
 20
48.188316
 30
0.0
 10
53.945556
 20
48.434859
 30
0.0
 10
48.590621
 20
53.788903
 30
0.0
 10
48.344633
 20
53.898998
 30
0.0
 10
48.082200
 20
53.835895
 30
0.0
 10
42.247035
 20
49.830767
 30
0.0
 10
41.687598
 20
49.811519
 30
0.0
 10
39.114182
 20
51.185501
 30
0.0
 10
38.867805
 20
51.202124
 30
0.0
 10
38.691247
 20
51.029754
 30
0.0
 10
33.385088
 20
38.208777
 30
0.0
 10
33.378202
 20
37.941591
 30
0.0
 10
33.540830
 20
37.729451
 30
0.0
 10
34.184855
 20
37.335161
 30
0.0
 10
34.592127
 20
37.023215
 30
0.0
 10
36.176085
 20
35.710216
 30
0.0
 10
37.395638
 20
34.049806
 30
0.0
 10
38.179587
 20
32.112639
 30
0.0
 10
38.456726
 20
29.969375
 30
0.0
 10
38.286577
 20
28.281675
 30
0.0
 10
37.798595
 20
26.709757
 30
0.0
 10
37.026463
 20
25.287289
 30
0.0
 10
36.003871
 20
24.047950
 30
0.0
 10
34.764500
 20
23.025405
 30
0.0
 10
33.342041
 20
22.253329
 30
0.0
 10
31.770182
 20
21.765390
 30
0.0
 10
30.082609
 20
21.595261
 30
0.0
 10
28.395055
 20
21.765390
 30
0.0
 10
26.823246
 20
22.253329
 30
0.0
 10
25.400860
 20
23.025405
 30
0.0
 10
24.161573
 20
24.047950
 30
0.0
 10
23.139061
 20
25.287289
 30
0.0
 10
22.367001
 20
26.709757
 30
0.0
 10
21.879069
 20
28.281675
 30
0.0
 10
21.708941
 20
29.969375
 30
0.0
 10
21.986016
 20
32.112639
 30
0.0
 10
22.769859
 20
34.049806
 30
0.0
 10
23.989392
 20
35.710216
 30
0.0
 10
25.573538
 20
37.023215
 30
0.0
 10
25.979914
 20
37.335161
 30
0.0
 10
26.623939
 20
37.729451
 30
0.0
 10
26.786064
 20
37.941591
 30
0.0
 10
26.779689
 20
38.208777
 30
0.0
 10
21.473870
 20
51.030200
 30
0.0
 10
21.297479
 20
51.202395
 30
0.0
 10
21.050935
 20
51.185942
 30
0.0
 10
18.477521
 20
49.811963
 30
0.0
 10
17.918083
 20
49.831210
 30
0.0
 10
12.082473
 20
53.836344
 30
0.0
 10
11.820265
 20
53.899446
 30
0.0
 10
11.574504
 20
53.789349
 30
0.0
 10
6.219564
 20
48.435305
 30
0.0
 10
6.108795
 20
48.188761
 30
0.0
 10
6.172571
 20
47.926442
 30
0.0
 10
10.249307
 20
41.986104
 30
0.0
 10
10.291376
 20
41.414584
 30
0.0
 10
8.050940
 20
35.817965
 30
0.0
 10
7.625320
 20
35.440679
 30
0.0
 10
0.448850
 20
34.105190
 30
0.0
 10
0.218585
 20
33.964934
 30
0.0
 10
0.122585
 20
33.712243
 30
0.0
 10
0.121690
 20
26.140136
 30
0.0
 10
0.217074
 20
25.887550
 30
0.0
 10
0.447059
 20
25.746741
 30
0.0
  0
ENDSEC
  0
SECTION
  2
OBJECTS
  0
DICTIONARY
  5
C
330
0
100
AcDbDictionary
  3
ACAD_GROUP
350
D
  3
ACAD_MLINESTYLE
350
17
  0
DICTIONARY
  5
D
330
C
100
AcDbDictionary
  0
DICTIONARY
  5
1A
330
C
100
AcDbDictionary
  0
DICTIONARY
  5
17
330
C
100
AcDbDictionary
  3
STANDARD
350
18
  0
DICTIONARY
  5
19
330
C
100
AcDbDictionary
  0
ENDSEC
  0
EOF
