  0
SECTION
  2
HEADER
  9
$ACADVER
  1
AC1014
  9
$HANDSEED
  5
FFFF
  9
$MEASUREMENT
 70
     1
  0
ENDSEC
  0
SECTION
  2
TABLES
  0
TABLE
  2
VPORT
  5
8
330
0
100
AcDbSymbolTable
 70
     4
  0
VPORT
  5
2E
330
8
100
AcDbSymbolTableRecord
100
AcDbViewportTableRecord
  2
*ACTIVE
 70
     0
 10
0.0
 20
0.0
 11
1.0
 21
1.0
 12
210.0
 22
148.5
 13
0.0
 23
0.0
 14
10.0
 24
10.0
 15
10.0
 25
10.0
 16
0.0
 26
0.0
 36
1.0
 17
0.0
 27
0.0
 37
0.0
 40
341.0
 41
1.24
 42
50.0
 43
0.0
 44
0.0
 50
0.0
 51
0.0
 71
     0
 72
   100
 73
     1
 74
     3
 75
     0
 76
     0
 77
     0
 78
     0
  0
ENDTAB
  0
TABLE
  2
LTYPE
  5
5
330
0
100
AcDbSymbolTable
 70
     1
  0
LTYPE
  5
14
330
5
100
AcDbSymbolTableRecord
100
AcDbLinetypeTableRecord
  2
BYBLOCK
 70
     0
  3

 72
    65
 73
     0
 40
0.0
  0
LTYPE
  5
15
330
5
100
AcDbSymbolTableRecord
100
AcDbLinetypeTableRecord
  2
BYLAYER
 70
     0
  3

 72
    65
 73
     0
 40
0.0
  0
LTYPE
  5
16
330
5
100
AcDbSymbolTableRecord
100
AcDbLinetypeTableRecord
  2
CONTINUOUS
 70
     0
  3
Solid line
 72
    65
 73
     0
 40
0.0
  0
ENDTAB
  0
TABLE
  2
LAYER
  5
2
100
AcDbSymbolTable
 70
2
  0
LAYER
  5
50
100
AcDbSymbolTableRecord
100
AcDbLayerTableRecord
  2
0
 70
0
  6
CONTINUOUS
  0
LAYER
  5
51
100
AcDbSymbolTableRecord
100
AcDbLayerTableRecord
  2
Layer_1
 70
0
  6
CONTINUOUS
  0
ENDTAB
  0
TABLE
  2
STYLE
  5
3
330
0
100
AcDbSymbolTable
 70
     1
  0
STYLE
  5
11
330
3
100
AcDbSymbolTableRecord
100
AcDbTextStyleTableRecord
  2
STANDARD
 70
     0
 40
0.0
 41
1.0
 50
0.0
 71
     0
 42
2.5
  3
txt
  4

  0
ENDTAB
  0
TABLE
  2
VIEW
  5
6
330
0
100
AcDbSymbolTable
 70
     0
  0
ENDTAB
  0
TABLE
  2
UCS
  5
7
330
0
100
AcDbSymbolTable
 70
     0
  0
ENDTAB
  0
TABLE
  2
APPID
  5
9
330
0
100
AcDbSymbolTable
 70
     2
  0
APPID
  5
12
330
9
100
AcDbSymbolTableRecord
100
AcDbRegAppTableRecord
  2
ACAD
 70
     0
  0
ENDTAB
  0
TABLE
  2
DIMSTYLE
  5
A
330
0
100
AcDbSymbolTable
 70
     1
  0
DIMSTYLE
105
27
330
A
100
AcDbSymbolTableRecord
100
AcDbDimStyleTableRecord
  2
ISO-25
 70
     0
  3

  4

  5

  6

  7

 40
1.0
 41
2.5
 42
0.625
 43
3.75
 44
1.25
 45
0.0
 46
0.0
 47
0.0
 48
0.0
140
2.5
141
2.5
142
0.0
143
0.03937007874016
144
1.0
145
0.0
146
1.0
147
0.625
 71
     0
 72
     0
 73
     0
 74
     0
 75
     0
 76
     0
 77
     1
 78
     8
170
     0
171
     3
172
     1
173
     0
174
     0
175
     0
176
     0
177
     0
178
     0
270
     2
271
     2
272
     2
273
     2
274
     3
340
11
275
     0
280
     0
281
     0
282
     0
283
     0
284
     8
285
     0
286
     0
287
     3
288
     0
  0
ENDTAB
  0
TABLE
  2
BLOCK_RECORD
  5
1
330
0
100
AcDbSymbolTable
 70
     1
  0
BLOCK_RECORD
  5
1F
330
1
100
AcDbSymbolTableRecord
100
AcDbBlockTableRecord
  2
*MODEL_SPACE
  0
BLOCK_RECORD
  5
1B
330
1
100
AcDbSymbolTableRecord
100
AcDbBlockTableRecord
  2
*PAPER_SPACE
  0
ENDTAB
  0
ENDSEC
  0
SECTION
  2
BLOCKS
  0
BLOCK
  5
20
330
1F
100
AcDbEntity
  8
0
100
AcDbBlockBegin
  2
*MODEL_SPACE
 70
     0
 10
0.0
 20
0.0
 30
0.0
  3
*MODEL_SPACE
  1

  0
ENDBLK
  5
21
330
1F
100
AcDbEntity
  8
0
100
AcDbBlockEnd
  0
BLOCK
  5
1C
330
1B
100
AcDbEntity
 67
     1
  8
0
100
AcDbBlockBegin
  2
*PAPER_SPACE
  1

  0
ENDBLK
  5
1D
330
1B
100
AcDbEntity
 67
     1
  8
0
100
AcDbBlockEnd
  0
ENDSEC
  0
SECTION
  2
ENTITIES
  0
LWPOLYLINE
  5
100
100
AcDbEntity
  8
Layer_1
 62
7
100
AcDbPolyline
 90
66
 70
0
 10
8.405646
 20
6.890905
 30
0.0
 10
12.372561
 20
6.890905
 30
0.0
 10
12.746926
 20
6.932392
 30
0.0
 10
13.032392
 20
7.056852
 30
0.0
 10
13.228961
 20
7.264285
 30
0.0
 10
13.336632
 20
7.554692
 30
0.0
 10
13.478872
 20
8.376523
 30
0.0
 10
13.478872
 20
8.518763
 30
0.0
 10
13.451210
 20
8.664943
 30
0.0
 10
13.368241
 20
8.787438
 30
0.0
 10
13.229948
 20
8.886202
 30
0.0
 10
13.036348
 20
8.929678
 30
0.0
 10
12.767672
 20
8.929678
 30
0.0
 10
10.997575
 20
8.929678
 30
0.0
 10
10.588633
 20
8.962275
 30
0.0
 10
10.215252
 20
9.060065
 30
0.0
 10
9.877433
 20
9.223048
 30
0.0
 10
9.575175
 20
9.451225
 30
0.0
 10
9.340082
 20
9.738663
 30
0.0
 10
9.172160
 20
10.063640
 30
0.0
 10
9.071407
 20
10.426156
 30
0.0
 10
9.037823
 20
10.826212
 30
0.0
 10
9.069432
 20
11.173909
 30
0.0
 10
9.448739
 20
13.576185
 30
0.0
 10
9.583075
 20
14.141187
 30
0.0
 10
9.828046
 20
14.666692
 30
0.0
 10
10.195497
 20
15.128961
 30
0.0
 10
10.665681
 20
15.504324
 30
0.0
 10
10.959049
 20
15.649521
 30
0.0
 10
11.301807
 20
15.753236
 30
0.0
 10
11.693956
 20
15.815468
 30
0.0
 10
12.135495
 20
15.836218
 30
0.0
 10
17.098090
 20
15.836218
 30
0.0
 10
16.702979
 20
13.370727
 30
0.0
 10
12.751868
 20
13.370727
 30
0.0
 10
12.364656
 20
13.336152
 30
0.0
 10
12.072273
 20
13.232431
 30
0.0
 10
11.874719
 20
13.059569
 30
0.0
 10
11.771992
 20
12.817572
 30
0.0
 10
11.645557
 20
12.043154
 30
0.0
 10
11.645557
 20
11.900914
 30
0.0
 10
11.685065
 20
11.675693
 30
0.0
 10
11.803601
 20
11.505803
 30
0.0
 10
12.036713
 20
11.422822
 30
0.0
 10
12.356757
 20
11.395172
 30
0.0
 10
14.111050
 20
11.395172
 30
0.0
 10
14.570364
 20
11.365784
 30
0.0
 10
14.968437
 20
11.277623
 30
0.0
 10
15.305268
 20
11.130689
 30
0.0
 10
15.580857
 20
10.924982
 30
0.0
 10
15.795205
 20
10.660504
 30
0.0
 10
15.948312
 20
10.337254
 30
0.0
 10
16.040177
 20
9.955233
 30
0.0
 10
16.070801
 20
9.514443
 30
0.0
 10
16.039192
 20
9.135136
 30
0.0
 10
15.675690
 20
6.843492
 30
0.0
 10
15.551226
 20
6.318987
 30
0.0
 10
15.351693
 20
5.851770
 30
0.0
 10
15.077092
 20
5.441840
 30
0.0
 10
14.727423
 20
5.089198
 30
0.0
 10
14.325394
 20
4.805702
 30
0.0
 10
13.877930
 20
4.603208
 30
0.0
 10
13.385030
 20
4.481714
 30
0.0
 10
12.846695
 20
4.441216
 30
0.0
 10
8.010535
 20
4.441216
 30
0.0
 10
8.405646
 20
6.890905
 30
0.0
  0
LWPOLYLINE
  5
101
100
AcDbEntity
  8
Layer_1
 62
7
100
AcDbPolyline
 90
41
 70
0
 10
19.080666
 20
4.441216
 30
0.0
 10
18.521336
 20
4.469861
 30
0.0
 10
18.036584
 20
4.555797
 30
0.0
 10
17.626409
 20
4.699023
 30
0.0
 10
17.290811
 20
4.899541
 30
0.0
 10
17.029791
 20
5.157351
 30
0.0
 10
16.843348
 20
5.472452
 30
0.0
 10
16.731483
 20
5.844845
 30
0.0
 10
16.694195
 20
6.274532
 30
0.0
 10
16.741608
 20
6.811883
 30
0.0
 10
17.784701
 20
13.354923
 30
0.0
 10
17.899282
 20
13.914003
 30
0.0
 10
18.084984
 20
14.405914
 30
0.0
 10
18.341806
 20
14.830657
 30
0.0
 10
18.669750
 20
15.188235
 30
0.0
 10
19.058933
 20
15.471722
 30
0.0
 10
19.499481
 20
15.674214
 30
0.0
 10
19.991395
 20
15.795712
 30
0.0
 10
20.534675
 20
15.836218
 30
0.0
 10
25.607901
 20
15.836218
 30
0.0
 10
25.228595
 20
13.370727
 30
0.0
 10
21.230070
 20
13.370727
 30
0.0
 10
20.803350
 20
13.370727
 30
0.0
 10
20.669008
 20
13.343066
 30
0.0
 10
20.518870
 20
13.260096
 30
0.0
 10
20.250195
 20
13.007225
 30
0.0
 10
20.107955
 20
12.643723
 30
0.0
 10
19.918301
 20
11.395172
 30
0.0
 10
24.912506
 20
11.395172
 30
0.0
 10
24.517395
 20
8.929678
 30
0.0
 10
19.538995
 20
8.929678
 30
0.0
 10
19.333537
 20
7.665323
 30
0.0
 10
19.317732
 20
7.444060
 30
0.0
 10
19.350327
 20
7.202051
 30
0.0
 10
19.448116
 20
7.029190
 30
0.0
 10
19.611100
 20
6.925476
 30
0.0
 10
19.839279
 20
6.890905
 30
0.0
 10
20.202781
 20
6.890905
 30
0.0
 10
24.201306
 20
6.890905
 30
0.0
 10
23.806195
 20
4.441216
 30
0.0
 10
19.080666
 20
4.441216
 30
0.0
  0
LWPOLYLINE
  5
102
100
AcDbEntity
  8
Layer_1
 62
7
100
AcDbPolyline
 90
41
 70
0
 10
27.584550
 20
4.441216
 30
0.0
 10
27.025220
 20
4.469861
 30
0.0
 10
26.540468
 20
4.555797
 30
0.0
 10
26.130293
 20
4.699023
 30
0.0
 10
25.794696
 20
4.899541
 30
0.0
 10
25.533676
 20
5.157351
 30
0.0
 10
25.347233
 20
5.472452
 30
0.0
 10
25.235367
 20
5.844845
 30
0.0
 10
25.198079
 20
6.274532
 30
0.0
 10
25.245492
 20
6.811883
 30
0.0
 10
26.288586
 20
13.354923
 30
0.0
 10
26.403167
 20
13.914003
 30
0.0
 10
26.588868
 20
14.405914
 30
0.0
 10
26.845691
 20
14.830657
 30
0.0
 10
27.173635
 20
15.188235
 30
0.0
 10
27.562817
 20
15.471722
 30
0.0
 10
28.003365
 20
15.674214
 30
0.0
 10
28.495279
 20
15.795712
 30
0.0
 10
29.038558
 20
15.836218
 30
0.0
 10
34.111785
 20
15.836218
 30
0.0
 10
33.732478
 20
13.370727
 30
0.0
 10
29.733954
 20
13.370727
 30
0.0
 10
29.307234
 20
13.370727
 30
0.0
 10
29.172893
 20
13.343066
 30
0.0
 10
29.022754
 20
13.260096
 30
0.0
 10
28.754078
 20
13.007225
 30
0.0
 10
28.611838
 20
12.643723
 30
0.0
 10
28.422185
 20
11.395172
 30
0.0
 10
33.416390
 20
11.395172
 30
0.0
 10
33.021278
 20
8.929678
 30
0.0
 10
28.042879
 20
8.929678
 30
0.0
 10
27.837421
 20
7.665323
 30
0.0
 10
27.821617
 20
7.444060
 30
0.0
 10
27.854211
 20
7.202051
 30
0.0
 10
27.952001
 20
7.029190
 30
0.0
 10
28.114984
 20
6.925476
 30
0.0
 10
28.343163
 20
6.890905
 30
0.0
 10
28.706665
 20
6.890905
 30
0.0
 10
32.705190
 20
6.890905
 30
0.0
 10
32.310078
 20
4.441216
 30
0.0
 10
27.584550
 20
4.441216
 30
0.0
  0
LWPOLYLINE
  5
103
100
AcDbEntity
  8
Layer_1
 62
7
100
AcDbPolyline
 90
23
 70
0
 10
35.171778
 20
15.836218
 30
0.0
 10
41.003618
 20
15.836218
 30
0.0
 10
41.499973
 20
15.808803
 30
0.0
 10
41.930148
 20
15.726568
 30
0.0
 10
42.294142
 20
15.589512
 30
0.0
 10
42.591956
 20
15.397636
 30
0.0
 10
42.823591
 20
15.150940
 30
0.0
 10
42.989045
 20
14.849422
 30
0.0
 10
43.088319
 20
14.493085
 30
0.0
 10
43.121413
 20
14.081927
 30
0.0
 10
43.105609
 20
13.718425
 30
0.0
 10
43.042391
 20
13.307509
 30
0.0
 10
42.046711
 20
6.954123
 30
0.0
 10
41.910394
 20
6.365160
 30
0.0
 10
41.714812
 20
5.854726
 30
0.0
 10
41.459964
 20
5.422820
 30
0.0
 10
41.145851
 20
5.069443
 30
0.0
 10
40.772471
 20
4.794593
 30
0.0
 10
40.339826
 20
4.598273
 30
0.0
 10
39.847915
 20
4.480480
 30
0.0
 10
39.296738
 20
4.441216
 30
0.0
 10
33.385876
 20
4.441216
 30
0.0
 10
35.171778
 20
15.836218
 30
0.0
  0
LWPOLYLINE
  5
104
100
AcDbEntity
  8
Layer_1
 62
7
100
AcDbPolyline
 90
14
 70
0
 10
38.727778
 20
6.890905
 30
0.0
 10
39.166345
 20
6.938318
 30
0.0
 10
39.438978
 20
7.080558
 30
0.0
 10
39.608870
 20
7.372937
 30
0.0
 10
39.739262
 20
7.870780
 30
0.0
 10
40.466267
 20
12.517287
 30
0.0
 10
40.497876
 20
12.833376
 30
0.0
 10
40.451446
 20
13.068463
 30
0.0
 10
40.312167
 20
13.236386
 30
0.0
 10
40.080041
 20
13.337141
 30
0.0
 10
39.755067
 20
13.370727
 30
0.0
 10
37.242160
 20
13.370727
 30
0.0
 10
36.214871
 20
6.890905
 30
0.0
 10
38.727778
 20
6.890905
 30
0.0
  0
LWPOLYLINE
  5
105
100
AcDbEntity
  8
Layer_1
 62
7
100
AcDbPolyline
 90
66
 70
0
 10
43.131150
 20
6.890905
 30
0.0
 10
47.098066
 20
6.890905
 30
0.0
 10
47.472429
 20
6.932392
 30
0.0
 10
47.757896
 20
7.056852
 30
0.0
 10
47.954465
 20
7.264285
 30
0.0
 10
48.062137
 20
7.554692
 30
0.0
 10
48.204377
 20
8.376523
 30
0.0
 10
48.204377
 20
8.518763
 30
0.0
 10
48.176713
 20
8.664943
 30
0.0
 10
48.093746
 20
8.787438
 30
0.0
 10
47.955451
 20
8.886202
 30
0.0
 10
47.761852
 20
8.929678
 30
0.0
 10
47.493177
 20
8.929678
 30
0.0
 10
45.723079
 20
8.929678
 30
0.0
 10
45.314136
 20
8.962275
 30
0.0
 10
44.940756
 20
9.060065
 30
0.0
 10
44.602937
 20
9.223048
 30
0.0
 10
44.300679
 20
9.451225
 30
0.0
 10
44.065587
 20
9.738663
 30
0.0
 10
43.897664
 20
10.063640
 30
0.0
 10
43.796911
 20
10.426156
 30
0.0
 10
43.763328
 20
10.826212
 30
0.0
 10
43.794937
 20
11.173909
 30
0.0
 10
44.174243
 20
13.576185
 30
0.0
 10
44.308578
 20
14.141187
 30
0.0
 10
44.553550
 20
14.666692
 30
0.0
 10
44.921000
 20
15.128961
 30
0.0
 10
45.391186
 20
15.504324
 30
0.0
 10
45.684553
 20
15.649521
 30
0.0
 10
46.027311
 20
15.753236
 30
0.0
 10
46.419459
 20
15.815468
 30
0.0
 10
46.860999
 20
15.836218
 30
0.0
 10
51.823595
 20
15.836218
 30
0.0
 10
51.428483
 20
13.370727
 30
0.0
 10
47.477372
 20
13.370727
 30
0.0
 10
47.090159
 20
13.336152
 30
0.0
 10
46.797776
 20
13.232431
 30
0.0
 10
46.600222
 20
13.059569
 30
0.0
 10
46.497497
 20
12.817572
 30
0.0
 10
46.371061
 20
12.043154
 30
0.0
 10
46.371061
 20
11.900914
 30
0.0
 10
46.410568
 20
11.675693
 30
0.0
 10
46.529106
 20
11.505803
 30
0.0
 10
46.762217
 20
11.422822
 30
0.0
 10
47.082261
 20
11.395172
 30
0.0
 10
48.836555
 20
11.395172
 30
0.0
 10
49.295868
 20
11.365784
 30
0.0
 10
49.693940
 20
11.277623
 30
0.0
 10
50.030771
 20
11.130689
 30
0.0
 10
50.306360
 20
10.924982
 30
0.0
 10
50.520708
 20
10.660504
 30
0.0
 10
50.673815
 20
10.337254
 30
0.0
 10
50.765681
 20
9.955233
 30
0.0
 10
50.796306
 20
9.514443
 30
0.0
 10
50.764697
 20
9.135136
 30
0.0
 10
50.401195
 20
6.843492
 30
0.0
 10
50.276729
 20
6.318987
 30
0.0
 10
50.077196
 20
5.851770
 30
0.0
 10
49.802596
 20
5.441840
 30
0.0
 10
49.452928
 20
5.089198
 30
0.0
 10
49.050898
 20
4.805702
 30
0.0
 10
48.603433
 20
4.603208
 30
0.0
 10
48.110534
 20
4.481714
 30
0.0
 10
47.572199
 20
4.441216
 30
0.0
 10
42.736039
 20
4.441216
 30
0.0
 10
43.131150
 20
6.890905
 30
0.0
  0
LWPOLYLINE
  5
106
100
AcDbEntity
  8
Layer_1
 62
7
100
AcDbPolyline
 90
9
 70
0
 10
52.952732
 20
16.183915
 30
0.0
 10
55.117941
 20
16.183915
 30
0.0
 10
54.612199
 20
12.991420
 30
0.0
 10
56.066207
 20
12.991420
 30
0.0
 10
55.734314
 20
10.810407
 30
0.0
 10
54.280305
 20
10.810407
 30
0.0
 10
53.268821
 20
4.441216
 30
0.0
 10
51.103612
 20
4.441216
 30
0.0
 10
52.952732
 20
16.183915
 30
0.0
  0
LWPOLYLINE
  5
107
100
AcDbEntity
  8
Layer_1
 62
7
100
AcDbPolyline
 90
48
 70
0
 10
61.313757
 20
12.991420
 30
0.0
 10
61.758254
 20
12.965491
 30
0.0
 10
62.143485
 20
12.887704
 30
0.0
 10
62.469450
 20
12.758058
 30
0.0
 10
62.736150
 20
12.576554
 30
0.0
 10
62.943583
 20
12.343191
 30
0.0
 10
63.091751
 20
12.057970
 30
0.0
 10
63.180654
 20
11.720891
 30
0.0
 10
63.210290
 20
11.331954
 30
0.0
 10
63.178682
 20
10.968452
 30
0.0
 10
62.467482
 20
6.432576
 30
0.0
 10
62.370674
 20
6.016725
 30
0.0
 10
62.206701
 20
5.638406
 30
0.0
 10
61.975563
 20
5.297621
 30
0.0
 10
61.677259
 20
4.994372
 30
0.0
 10
61.334496
 20
4.752362
 30
0.0
 10
60.970004
 20
4.579501
 30
0.0
 10
60.583785
 20
4.475787
 30
0.0
 10
60.175837
 20
4.441216
 30
0.0
 10
57.220406
 20
4.441216
 30
0.0
 10
56.768496
 20
4.466652
 30
0.0
 10
56.376842
 20
4.542958
 30
0.0
 10
56.045442
 20
4.670136
 30
0.0
 10
55.774297
 20
4.848184
 30
0.0
 10
55.563407
 20
5.077102
 30
0.0
 10
55.412771
 20
5.356890
 30
0.0
 10
55.322390
 20
5.687547
 30
0.0
 10
55.292264
 20
6.069074
 30
0.0
 10
55.323873
 20
6.369358
 30
0.0
 10
55.592548
 20
8.107847
 30
0.0
 10
55.694288
 20
8.563206
 30
0.0
 10
55.857271
 20
8.965228
 30
0.0
 10
56.081497
 20
9.313914
 30
0.0
 10
56.366966
 20
9.609269
 30
0.0
 10
56.706759
 20
9.844356
 30
0.0
 10
57.093967
 20
10.012279
 30
0.0
 10
57.528590
 20
10.113035
 30
0.0
 10
58.010628
 20
10.146620
 30
0.0
 10
60.887037
 20
10.146620
 30
0.0
 10
60.934450
 20
10.352078
 30
0.0
 10
60.950255
 20
10.573340
 30
0.0
 10
60.918641
 20
10.732365
 30
0.0
 10
60.823813
 20
10.845960
 30
0.0
 10
60.665771
 20
10.914121
 30
0.0
 10
60.444513
 20
10.936843
 30
0.0
 10
56.082486
 20
10.936843
 30
0.0
 10
56.398575
 20
12.991420
 30
0.0
 10
61.313757
 20
12.991420
 30
0.0
  0
LWPOLYLINE
  5
108
100
AcDbEntity
  8
Layer_1
 62
7
100
AcDbPolyline
 90
23
 70
0
 10
58.073846
 20
6.543207
 30
0.0
 10
59.749117
 20
6.543207
 30
0.0
 10
59.997045
 20
6.573826
 30
0.0
 10
60.187684
 20
6.665684
 30
0.0
 10
60.321036
 20
6.818789
 30
0.0
 10
60.397099
 20
7.033145
 30
0.0
 10
60.507730
 20
7.633714
 30
0.0
 10
60.523535
 20
7.823367
 30
0.0
 10
60.484018
 20
7.930044
 30
0.0
 10
60.365490
 20
8.028825
 30
0.0
 10
60.199537
 20
8.111795
 30
0.0
 10
59.986184
 20
8.139456
 30
0.0
 10
58.310913
 20
8.139456
 30
0.0
 10
58.034331
 20
8.111795
 30
0.0
 10
57.868388
 20
8.028825
 30
0.0
 10
57.773557
 20
7.866822
 30
0.0
 10
57.678735
 20
7.570496
 30
0.0
 10
57.599713
 20
7.033145
 30
0.0
 10
57.583908
 20
6.985732
 30
0.0
 10
57.615514
 20
6.800015
 30
0.0
 10
57.710344
 20
6.653838
 30
0.0
 10
57.864433
 20
6.578764
 30
0.0
 10
58.073846
 20
6.543207
 30
0.0
  0
LWPOLYLINE
  5
109
100
AcDbEntity
  8
Layer_1
 62
7
100
AcDbPolyline
 90
36
 70
0
 10
69.982726
 20
10.810407
 30
0.0
 10
67.058904
 20
10.810407
 30
0.0
 10
66.727007
 20
10.794567
 30
0.0
 10
66.521553
 20
10.747189
 30
0.0
 10
66.403015
 20
10.652363
 30
0.0
 10
66.331900
 20
10.462709
 30
0.0
 10
66.300291
 20
10.194034
 30
0.0
 10
65.826157
 20
7.206994
 30
0.0
 10
65.826157
 20
7.127972
 30
0.0
 10
65.857763
 20
6.899795
 30
0.0
 10
65.952589
 20
6.736812
 30
0.0
 10
66.110635
 20
6.639022
 30
0.0
 10
66.331900
 20
6.606425
 30
0.0
 10
69.303135
 20
6.606425
 30
0.0
 10
68.971242
 20
4.441216
 30
0.0
 10
65.494264
 20
4.441216
 30
0.0
 10
65.031242
 20
4.466157
 30
0.0
 10
64.629957
 20
4.540980
 30
0.0
 10
64.290408
 20
4.665686
 30
0.0
 10
64.012595
 20
4.840275
 30
0.0
 10
63.796519
 20
5.064747
 30
0.0
 10
63.642179
 20
5.339102
 30
0.0
 10
63.549576
 20
5.663341
 30
0.0
 10
63.518709
 20
6.037465
 30
0.0
 10
63.566122
 20
6.638034
 30
0.0
 10
64.245713
 20
10.968452
 30
0.0
 10
64.343501
 20
11.409978
 30
0.0
 10
64.494631
 20
11.802122
 30
0.0
 10
64.699101
 20
12.144884
 30
0.0
 10
64.956913
 20
12.438265
 30
0.0
 10
65.258182
 20
12.680262
 30
0.0
 10
65.593038
 20
12.853124
 30
0.0
 10
65.961481
 20
12.956846
 30
0.0
 10
66.363509
 20
12.991420
 30
0.0
 10
70.314620
 20
12.991420
 30
0.0
 10
69.982726
 20
10.810407
 30
0.0
  0
LWPOLYLINE
  5
10a
100
AcDbEntity
  8
Layer_1
 62
7
100
AcDbPolyline
 90
5
 70
0
 10
71.796882
 20
16.183915
 30
0.0
 10
73.962091
 20
16.183915
 30
0.0
 10
72.112971
 20
4.441216
 30
0.0
 10
69.947762
 20
4.441216
 30
0.0
 10
71.796882
 20
16.183915
 30
0.0
  0
LWPOLYLINE
  5
10b
100
AcDbEntity
  8
Layer_1
 62
7
100
AcDbPolyline
 90
11
 70
0
 10
72.934802
 20
8.218478
 30
0.0
 10
72.839975
 20
8.629394
 30
0.0
 10
72.862692
 20
8.854602
 30
0.0
 10
72.930848
 20
9.087716
 30
0.0
 10
73.203477
 20
9.577660
 30
0.0
 10
75.747993
 20
12.991420
 30
0.0
 10
78.276704
 20
12.991420
 30
0.0
 10
75.179033
 20
8.850656
 30
0.0
 10
77.154588
 20
4.441216
 30
0.0
 10
74.610073
 20
4.441216
 30
0.0
 10
72.934802
 20
8.218478
 30
0.0
  0
ENDSEC
  0
SECTION
  2
OBJECTS
  0
DICTIONARY
  5
C
330
0
100
AcDbDictionary
  3
ACAD_GROUP
350
D
  3
ACAD_MLINESTYLE
350
17
  0
DICTIONARY
  5
D
330
C
100
AcDbDictionary
  0
DICTIONARY
  5
1A
330
C
100
AcDbDictionary
  0
DICTIONARY
  5
17
330
C
100
AcDbDictionary
  3
STANDARD
350
18
  0
DICTIONARY
  5
19
330
C
100
AcDbDictionary
  0
ENDSEC
  0
EOF
